<svg width="916" height="139" viewBox="0 0 916 139" fill="none" xmlns="http://www.w3.org/2000/svg">
<path d="M64.3227 0.23584L0.635986 69.4207H35.1576C40.415 69.4207 45.0431 65.9524 46.5245 60.9022L64.3227 0.23584Z" fill="#F0FF26"/>
<path d="M41.3431 77.9371L23.5449 138.605L87.2317 69.4204H52.7101C47.4526 69.4204 42.8245 72.8887 41.3431 77.9389V77.9371Z" fill="#F0FF26"/>
<path d="M191.782 71.2909L183.105 115.555H162.407L169.902 76.8564C171.833 66.8789 169.902 64.053 163.041 64.053C155.805 64.053 148.8 68.5803 146.984 77.7792L139.604 115.555H118.906L136.894 23.0186H157.592L150.616 58.8624L150.731 58.3433C155.402 52.2588 162.493 47.2124 172.468 47.2124C187.083 47.2124 194.579 56.1517 191.753 71.2909H191.782Z" fill="#F7F8F1"/>
<path d="M228.134 117.373C219.197 134.329 212.596 138.481 199.277 138.481C195.126 138.481 191.379 137.962 187.372 137.068L189.822 121.929C195.011 122.967 200.171 121.669 202.621 117.921C205.331 115.469 206.254 111.317 205.475 105.492L194.607 49.3184H214.902L221.504 92.8039H221.763L242.721 49.3184H263.823L228.105 117.373H228.134Z" fill="#F7F8F1"/>
<path d="M328.541 83.6034C324.39 104.683 311.331 117.631 294.38 117.631C284.147 117.631 278.093 111.95 276.132 108.432L275.354 108.951L269.675 138.451H248.977L266.302 49.2879H287.001L285.963 55.1129C289.336 51.6237 296.831 47.2117 305.508 47.2117C323.756 47.2117 332.923 61.1974 328.541 83.5746V83.6034ZM299.685 62.7546C290.633 62.7546 283.397 69.9925 280.658 83.6034C278.323 95.8878 281.552 102.116 289.336 102.116C298.388 102.116 305.623 94.8785 308.362 81.2676C310.697 68.9833 307.468 62.7546 299.685 62.7546Z" fill="#F7F8F1"/>
<path d="M373.945 94.9936H394.788C388.59 109.354 377.059 117.63 359.733 117.63C337.103 117.63 325.832 101.597 330.502 78.9316C334.509 59.3804 349.009 47.2402 369.448 47.2402C392.741 47.2402 401.793 64.3115 397.123 87.6114H349.528C347.712 97.7042 354.313 102.116 361.03 102.116C368.785 102.116 373.311 98.2233 373.974 94.9936H373.945ZM351.95 75.9614H379.105C380.777 65.6091 375.877 61.4566 368.612 61.4566C360.079 61.4566 353.737 66.6184 351.921 75.9614H351.95Z" fill="#F7F8F1"/>
<path d="M450.915 48.7984L447.946 66.5329C437.856 64.9758 425.057 71.464 422.318 85.3055L416.38 115.584H395.681L408.625 49.3175H429.323L427.133 60.1889L427.248 59.6698C431.918 52.2877 438.116 48.1641 444.717 48.1641C447.168 48.1641 448.609 48.2794 450.915 48.7984Z" fill="#F7F8F1"/>
<path d="M518.055 83.6039C513.904 104.683 500.845 117.631 483.895 117.631C473.661 117.631 467.607 111.95 465.647 108.432L464.868 108.951L463.571 115.555H442.873L460.861 23.0183H481.559L475.477 55.1134C478.85 51.6242 486.345 47.2122 495.022 47.2122C513.27 47.2122 522.437 61.1979 518.055 83.5751V83.6039ZM489.228 62.7551C480.176 62.7551 472.94 69.993 470.201 83.6039C467.866 95.8883 471.095 102.117 478.878 102.117C487.93 102.117 495.166 94.879 497.905 81.2681C500.24 68.9838 497.011 62.7551 489.228 62.7551Z" fill="#F7F8F1"/>
<path d="M571.358 48.7984L568.389 66.5329C558.299 64.9758 545.499 71.464 542.761 85.3055L536.822 115.584H516.124L529.068 49.3175H549.766L547.575 60.1889L547.69 59.6698C552.36 52.2877 558.558 48.1641 565.16 48.1641C567.61 48.1641 569.052 48.2794 571.358 48.7984Z" fill="#F7F8F1"/>
<path d="M565.016 83.6031C569.167 62.3794 586.118 47.2402 608.863 47.2402C630.196 47.2402 640.17 61.3413 636.278 81.2674C632.127 102.491 615.176 117.63 592.546 117.63C569.917 117.63 561.095 103.529 564.987 83.6031H565.016ZM614.975 83.6031C618.866 70.1364 614.715 62.7543 605 62.7543C596.467 62.7543 589.75 69.0983 586.377 81.2674C582.486 94.734 586.637 102.116 596.467 102.116C604.885 102.116 611.602 95.7721 614.975 83.6031Z" fill="#F7F8F1"/>
<path d="M658.303 49.3184L660.378 89.6895H660.638L679.405 49.3184H697.508L700.478 89.6895H700.737L718.581 49.3184H739.539L708.088 115.585H688.802L684.132 73.6564H683.873L662.915 115.585H643.37L637.806 49.3184H658.245H658.303Z" fill="#F7F8F1"/>
<path d="M791.804 94.5901C791.804 110.767 779.12 117.631 761.391 117.631C737.06 117.631 730.199 106.5 730.199 94.0711H749.341C748.707 100.675 753.348 103.385 760.843 103.385C767.3 103.385 771.192 101.05 771.192 96.5222C771.192 91.9948 766.522 91.5911 757.211 88.621C745.824 84.9876 736.512 80.4602 736.512 69.8484C736.512 55.6031 749.052 47.2117 765.744 47.2117C788.892 47.2117 794.975 58.4579 794.975 69.0698H775.949C776.324 63.7639 771.798 61.4281 765.744 61.4281C760.555 61.4281 757.067 62.9853 757.067 66.5898C757.067 70.5981 760.18 71.2613 768.972 73.972C780.878 77.7207 791.746 82.7671 791.746 94.5613L791.804 94.5901Z" fill="#F7F8F1"/>
<path d="M838.39 94.9936H859.232C853.034 109.354 841.503 117.63 824.178 117.63C801.548 117.63 790.276 101.597 794.946 78.9316C798.953 59.3804 813.454 47.2402 833.893 47.2402C857.186 47.2402 866.237 64.3115 861.567 87.6114H813.973C812.157 97.7042 818.758 102.116 825.475 102.116C833.23 102.116 837.756 98.2233 838.419 94.9936H838.39ZM816.394 75.9614H843.55C845.222 65.6091 840.321 61.4566 833.057 61.4566C824.524 61.4566 818.182 66.6184 816.365 75.9614H816.394Z" fill="#F7F8F1"/>
<path d="M915.36 48.7984L912.391 66.5329C902.301 64.9758 889.502 71.464 886.763 85.3055L880.824 115.584H860.126L873.07 49.3175H893.768L891.577 60.1889L891.693 59.6698C896.363 52.2877 902.561 48.1641 909.162 48.1641C911.613 48.1641 913.054 48.2794 915.36 48.7984Z" fill="#F7F8F1"/>
</svg>
